PathFileType	4	(X/Y/Z)	C:/Users/opensim2020/Desktop/walking_exp_matlab/subject06_walking16_straight_04.trc																																																																																																																																																							
DataRate	CameraRate	NumFrames	NumMarkers	Units	OrigDataRate	OrigDataStartFrame	OrigNumFrames																																																																																																																																																			
100	100	5	51	mm	100	3965	352																																																																																																																																																			
Frame#	Time	LFHD			RFHD			LBHD			RBHD			C7			T10			CLAV			STRN			RBAK			LSHO			LUPA			LELB			LFRM			LWRA			LWRB			LFIN			RSHO			RUPA			RELB			RFRM			RWRA			RWRB			RFIN			LASI			RASI			LPSI			RPSI			LTHI			LKNE			LTIB			LANK			LHEE			LTOE			RTHI			RKNE			RTIB			RANK			RHEE			RTOE			*39			*40			*41			*42			*43			*44			*45			*46			*47			*48			*49			*50		
		X1	Y1	Z1	X2	Y2	Z2	X3	Y3	Z3	X4	Y4	Z4	X5	Y5	Z5	X6	Y6	Z6	X7	Y7	Z7	X8	Y8	Z8	X9	Y9	Z9	X10	Y10	Z10	X11	Y11	Z11	X12	Y12	Z12	X13	Y13	Z13	X14	Y14	Z14	X15	Y15	Z15	X16	Y16	Z16	X17	Y17	Z17	X18	Y18	Z18	X19	Y19	Z19	X20	Y20	Z20	X21	Y21	Z21	X22	Y22	Z22	X23	Y23	Z23	X24	Y24	Z24	X25	Y25	Z25	X26	Y26	Z26	X27	Y27	Z27	X28	Y28	Z28	X29	Y29	Z29	X30	Y30	Z30	X31	Y31	Z31	X32	Y32	Z32	X33	Y33	Z33	X34	Y34	Z34	X35	Y35	Z35	X36	Y36	Z36	X37	Y37	Z37	X38	Y38	Z38	X39	Y39	Z39	X40	Y40	Z40	X41	Y41	Z41	X42	Y42	Z42	X43	Y43	Z43	X44	Y44	Z44	X45	Y45	Z45	X46	Y46	Z46	X47	Y47	Z47	X48	Y48	Z48	X49	Y49	Z49	X50	Y50	Z50	X51	Y51	Z51
																																																																																																																																																										
133	1.32	-466.87775	1667.39587	-1542.32617	-482.48181	1650.44421	-1412.77209	-600.39459	1613.80798	-1560.79492	-613.62292	1602.28052	-1432.86316	-608.53278	1453.43982	-1508.32275	-637.72052	1123.16931	-1496.2655	-498.07529	1376.72522	-1499.0437	-457.86255	1201.14417	-1503.79504	-684.68188	1281.30151	-1432.64868	-537.59473	1409.17395	-1662.94519	-498.92688	1212.4187	-1740.04578	-470.52676	1103.21948	-1755.55261	-390.36984	974.94067	-1764.93481	-303.02762	890.99457	-1704.16406	-346.75443	863.80585	-1753.09021	-277.41962	807.15613	-1741.67969	-555.31482	1406.98645	-1341.6748	-600.20081	1209.22327	-1255.87134	-590.38	1087.42688	-1243.11096	-565.35919	970.13	-1224.59363	-487.41806	840.15405	-1253.80261	-543.41364	834.39471	-1216.55042	-496.9736	763.81732	-1213.40991	-453.00906	961.38196	-1594.48523	-459.09161	978.20856	-1372.23279	-612.49811	989.50128	-1567.1604	-610.37665	995.79327	-1398.86731	-538.79895	648.3772	-1633.93127	-556.75513	485.1937	-1608.52576	-632.19855	237.95465	-1591.72827	-663.6991	71.15506	-1537.81909	-703.68835	60.55737	-1491.47339	-520.75305	39.08336	-1541.08801	-445.28641	650.60699	-1297.82239	-399.93146	532.28558	-1322.36804	-414.15799	270.80957	-1315.8335	-408.76395	83.03127	-1350.23792	-444.33435	53.30806	-1396.34033	-254.43921	57.68871	-1353.11499	-574.25824	1703.41724	-1493.58765	NaN	NaN	NaN	NaN	NaN	NaN	NaN	NaN	NaN	NaN	NaN	NaN	NaN	NaN	NaN	NaN	NaN	NaN	NaN	NaN	NaN	NaN	NaN	NaN	NaN	NaN	NaN	NaN	NaN	NaN	NaN	NaN	NaN
134	1.33	-461.59128	1666.68286	-1541.97925	-477.30859	1649.75488	-1412.49316	-594.52527	1612.95288	-1560.00293	-608.45618	1601.64563	-1432.68127	-603.26837	1452.7533	-1508.20251	-632.36072	1122.48914	-1496.06738	-492.83942	1376.05225	-1498.91345	-452.47705	1200.49487	-1503.73413	-679.34619	1280.52173	-1432.63855	-532.33203	1408.55908	-1662.76013	-493.30286	1211.81018	-1739.65625	-464.63385	1102.68005	-1754.9845	-383.45779	974.92371	-1763.75183	-295.40689	892.15765	-1702.32849	-339.21262	864.24725	-1750.90686	-269.43512	807.97546	-1738.99744	-550.13849	1406.23267	-1341.50549	-595.2196	1208.45813	-1255.81958	-585.55212	1086.64746	-1243.05725	-560.6236	969.38489	-1224.56531	-482.88406	839.28259	-1253.79968	-538.86139	833.60956	-1216.56091	-492.51337	762.90833	-1213.4751	-447.80997	960.6449	-1594.5448	-453.45493	977.39661	-1372.29443	-607.18457	988.90411	-1567.05493	-604.79242	995.20667	-1398.81079	-534.56689	647.76746	-1633.88464	-553.06403	484.66495	-1608.42285	-630.37085	237.91808	-1591.6853	-663.42328	71.41151	-1537.79895	-703.5274	60.93096	-1491.4679	-520.50812	39.0271	-1540.85962	-440.55923	649.80603	-1297.28406	-395.4155	531.53827	-1322.09778	-402.67264	269.96829	-1315.05188	-391.08255	82.3736	-1349.14685	-425.79929	52.13358	-1395.33411	-236.05608	59.4675	-1352.27612	-568.95343	1702.76672	-1493.41992	NaN	NaN	NaN	NaN	NaN	NaN	NaN	NaN	NaN	NaN	NaN	NaN	NaN	NaN	NaN	NaN	NaN	NaN	NaN	NaN	NaN	NaN	NaN	NaN	NaN	NaN	NaN	NaN	NaN	NaN	NaN	NaN	NaN
135	1.34	-456.15524	1665.95898	-1541.64746	-472.11801	1649.04541	-1412.1322	-589.14819	1612.29224	-1559.84619	-603.15143	1600.97095	-1432.46082	-597.99274	1452.02441	-1507.98596	-626.87427	1121.7345	-1495.74194	-487.5311	1375.36475	-1498.65894	-447.20773	1199.79346	-1503.56494	-674.02533	1279.68018	-1432.56555	-527.00684	1407.89734	-1662.48157	-487.65393	1211.22241	-1739.16797	-458.87488	1102.04724	-1754.41309	-376.78815	974.78625	-1762.26318	-287.94775	893.29498	-1700.33118	-331.61414	864.53571	-1748.36157	-261.67154	808.75342	-1736.14331	-544.95673	1405.47363	-1341.2262	-590.34381	1207.74976	-1255.70447	-580.72394	1085.88416	-1242.97144	-555.91595	968.54718	-1224.49255	-478.45908	838.29413	-1253.72913	-534.30835	832.76385	-1216.47949	-488.11295	762.00458	-1213.31165	-442.61636	959.80054	-1594.54419	-447.83566	976.5448	-1372.3291	-601.90289	988.28839	-1566.87561	-599.15442	994.53833	-1398.58191	-530.28699	647.13055	-1633.8313	-549.2417	484.05264	-1608.26733	-628.45221	237.89223	-1591.66602	-663.10205	71.62226	-1537.82642	-703.37439	61.38826	-1491.54907	-520.44666	39.02241	-1540.77576	-435.70172	649.1225	-1296.87878	-390.806	530.69897	-1321.87756	-391.77155	269.32205	-1314.2262	-373.96619	82.01717	-1348.18933	-407.76913	51.28353	-1394.36243	-217.88748	61.49569	-1351.37854	-563.61176	1702.06763	-1493.15308	NaN	NaN	NaN	NaN	NaN	NaN	NaN	NaN	NaN	NaN	NaN	NaN	NaN	NaN	NaN	NaN	NaN	NaN	NaN	NaN	NaN	NaN	NaN	NaN	NaN	NaN	NaN	NaN	NaN	NaN	NaN	NaN	NaN
136	1.35	-450.75171	1665.22632	-1541.32141	-466.78204	1648.2981	-1411.78699	-583.6875	1611.52869	-1559.44324	-597.79718	1600.21912	-1432.17664	-592.6181	1451.25671	-1507.76697	-621.42682	1120.94153	-1495.33044	-482.09564	1374.61426	-1498.40063	-441.79977	1199.07556	-1503.36267	-668.59412	1278.77539	-1432.38232	-521.47797	1407.21021	-1662.18396	-482.0336	1210.58362	-1738.66882	-453.24277	1101.33704	-1753.82751	-370.27094	974.62085	-1760.5166	-280.59399	894.4245	-1698.20459	-324.17505	864.85498	-1745.82971	-253.92366	809.54755	-1733.11304	-539.70209	1404.68445	-1340.91577	-585.4054	1206.97034	-1255.52698	-575.93787	1085.08508	-1242.7334	-551.17535	967.75513	-1224.33813	-473.71951	837.39703	-1253.49487	-529.74371	831.92365	-1216.32104	-483.52692	761.1496	-1213.19446	-437.36877	958.86432	-1594.56714	-442.20822	975.53998	-1372.35657	-596.65204	987.64673	-1566.61597	-593.43304	993.83466	-1398.33643	-525.94586	646.46698	-1633.72107	-545.33539	483.44452	-1608.08801	-626.46667	237.82663	-1591.70544	-662.77026	71.93706	-1537.88025	-703.20209	61.88042	-1491.6333	-520.36908	38.98214	-1540.69995	-430.93835	648.15198	-1296.50903	-386.45712	529.85553	-1322.13562	-381.04849	268.82602	-1313.48071	-357.43994	82.09043	-1347.13489	-390.34036	50.82088	-1393.44861	-200.69307	63.88919	-1350.08008	-558.14984	1701.34131	-1492.81934	NaN	NaN	NaN	NaN	NaN	NaN	NaN	NaN	NaN	NaN	NaN	NaN	NaN	NaN	NaN	NaN	NaN	NaN	NaN	NaN	NaN	NaN	NaN	NaN	NaN	NaN	NaN	NaN	NaN	NaN	NaN	NaN	NaN
137	1.36	-445.32462	1664.45313	-1540.86414	-461.41171	1647.53967	-1411.3728	-578.62927	1610.94556	-1559.62024	-592.51184	1599.45679	-1431.79529	-587.13263	1450.54919	-1507.54236	-616.06097	1120.14856	-1494.86304	-476.68164	1373.84839	-1498.0813	-436.35657	1198.28149	-1503.17285	-663.16595	1277.86487	-1432.11719	-515.70709	1406.48071	-1661.78552	-476.40628	1209.9032	-1738.11572	-447.58542	1100.61658	-1753.24121	-363.69336	974.44989	-1758.89978	-273.43353	895.50629	-1695.88574	-316.82819	865.16742	-1743.10803	-246.38821	810.34198	-1729.95239	-534.44482	1403.93652	-1340.55615	-580.45258	1206.18921	-1255.32703	-571.08185	1084.3186	-1242.47107	-546.39252	966.90393	-1224.17944	-469.20074	836.50946	-1253.26135	-525.15521	831.06134	-1216.11499	-479.11554	760.28357	-1212.86572	-432.25903	958.08362	-1594.573	-436.4317	974.55054	-1372.38306	-591.40936	986.97211	-1566.24207	-587.54529	993.01813	-1397.95886	-521.58295	645.79816	-1633.58862	-541.36377	482.82849	-1607.88379	-624.43677	237.82765	-1591.66553	-662.41632	72.26415	-1537.9353	-702.98212	62.47537	-1491.78857	-520.22034	38.93198	-1540.64502	-426.09442	647.24969	-1296.1698	-381.46014	529.19391	-1322.08044	-370.68274	268.43359	-1312.70129	-341.72672	82.33837	-1345.90527	-373.55844	50.68134	-1392.6637	-184.07808	66.21335	-1348.77917	-552.72241	1700.70728	-1492.43323	NaN	NaN	NaN	NaN	NaN	NaN	NaN	NaN	NaN	NaN	NaN	NaN	NaN	NaN	NaN	NaN	NaN	NaN	NaN	NaN	NaN	NaN	NaN	NaN	NaN	NaN	NaN	NaN	NaN	NaN	NaN	NaN	NaN
